<?xml version="1.0" encoding="UTF-8" standalone="no"?>
<svg
   xmlns:dc="http://purl.org/dc/elements/1.1/"
   xmlns:cc="http://creativecommons.org/ns#"
   xmlns:rdf="http://www.w3.org/1999/02/22-rdf-syntax-ns#"
   xmlns:svg="http://www.w3.org/2000/svg"
   xmlns="http://www.w3.org/2000/svg"
   xmlns:sodipodi="http://sodipodi.sourceforge.net/DTD/sodipodi-0.dtd"
   xmlns:inkscape="http://www.inkscape.org/namespaces/inkscape"
   inkscape:version="1.0 (4035a4f, 2020-05-01)"
   sodipodi:docname="deps.svg"
   viewBox="0 0 1072 446.66666"
   height="446.66666"
   width="1072"
   xml:space="preserve"
   id="svg10"
   version="1.1"><metadata
     id="metadata16"><rdf:RDF><cc:Work
         rdf:about=""><dc:format>image/svg+xml</dc:format><dc:type
           rdf:resource="http://purl.org/dc/dcmitype/StillImage" /><dc:title></dc:title></cc:Work></rdf:RDF></metadata><defs
     id="defs14"><clipPath
       id="clipPath28"
       clipPathUnits="userSpaceOnUse"><path
         id="path26"
         d="M 0,0 H 804 V 335 H 0 Z" /></clipPath></defs><sodipodi:namedview
     inkscape:current-layer="g18"
     inkscape:window-maximized="0"
     inkscape:window-y="235"
     inkscape:window-x="366"
     inkscape:cy="223.33333"
     inkscape:cx="536"
     inkscape:zoom="0.98227612"
     showgrid="false"
     id="namedview12"
     inkscape:window-height="1077"
     inkscape:window-width="1732"
     inkscape:pageshadow="2"
     inkscape:pageopacity="0"
     guidetolerance="10"
     gridtolerance="10"
     objecttolerance="10"
     borderopacity="1"
     bordercolor="#666666"
     pagecolor="#ffffff" /><g
     transform="matrix(1.3333333,0,0,-1.3333333,0,446.66667)"
     inkscape:label="deps"
     inkscape:groupmode="layer"
     id="g18"><g
       id="g20" /><g
       id="g22"><g
         clip-path="url(#clipPath28)"
         id="g24"><path
           id="path30"
           style="fill:#ffffff;fill-opacity:1;fill-rule:nonzero;stroke:none"
           d="M 0,335 H 804 V 0 H 0 Z" /></g></g><g
       id="g36"
       transform="translate(771.7592,-146)"><text
         transform="matrix(1,0,0,-1,0,335)"
         style="font-variant:normal;font-weight:bold;font-size:9px;font-family:'Gill Sans MT';-inkscape-font-specification:GillSansMT-Bold;writing-mode:lr-tb;fill:#ffffff;fill-opacity:1;fill-rule:nonzero;stroke:none"
         id="text40"><tspan
           x="0 8.0001001"
           y="0"
           sodipodi:role="line"
           id="tspan38">Mu</tspan></text></g><g
       id="g42"
       transform="translate(760.7592,-156)"><text
         transform="matrix(1,0,0,-1,0,335)"
         style="font-variant:normal;font-weight:bold;font-size:9px;font-family:'Gill Sans MT';-inkscape-font-specification:GillSansMT-Bold;writing-mode:lr-tb;fill:#ffffff;fill-opacity:1;fill-rule:nonzero;stroke:none"
         id="text46"><tspan
           x="0 6.0002999 11.0016 19.998899 25.0002 30.001499 35.0028"
           y="0"
           sodipodi:role="line"
           id="tspan44">Lambda </tspan></text></g><g
       id="g48"
       transform="translate(774.7592,-167)"><text
         transform="matrix(1,0,0,-1,0,335)"
         style="font-variant:normal;font-weight:bold;font-size:9px;font-family:'Gill Sans MT';-inkscape-font-specification:GillSansMT-Bold;writing-mode:lr-tb;fill:#ffffff;fill-opacity:1;fill-rule:nonzero;stroke:none"
         id="text52"><tspan
           x="0"
           y="0"
           id="tspan50">V</tspan></text></g><path
       d="m 180,211 h 40 V 69 h -40 z"
       style="fill:#99bde4;fill-opacity:1;fill-rule:nonzero;stroke:none"
       id="path54" /><g
       id="g56"
       transform="translate(196.6718,-198)"><text
         transform="matrix(1,0,0,-1,0,335)"
         style="font-variant:normal;font-weight:bold;font-size:9px;font-family:'Gill Sans MT';-inkscape-font-specification:GillSansMT-Bold;writing-mode:lr-tb;fill:#ffffff;fill-opacity:1;fill-rule:nonzero;stroke:none"
         id="text60"><tspan
           x="0"
           y="0"
           id="tspan58">U</tspan></text></g><path
       d="m 350,211 h 39 V 13 h -39 z"
       style="fill:#90298d;fill-opacity:1;fill-rule:nonzero;stroke:none"
       id="path62" /><g
       id="g64"
       transform="translate(366.4253,-227)"><text
         transform="matrix(1,0,0,-1,0,335)"
         style="font-variant:normal;font-weight:bold;font-size:9px;font-family:'Gill Sans MT';-inkscape-font-specification:GillSansMT-Bold;writing-mode:lr-tb;fill:#ffffff;fill-opacity:1;fill-rule:nonzero;stroke:none"
         id="text68"><tspan
           x="0"
           y="0"
           id="tspan66">V</tspan></text></g><path
       d="m 149.5,139.3749 26.2811,1e-4 v 0.25 l -26.2811,-1e-4 z m 25.2811,-2.8749 6,3 -6,3 z"
       style="fill:#3f98bd;fill-opacity:1;fill-rule:nonzero;stroke:none"
       id="path70" /><path
       d="m 389.895,111.668 h 18.0004 c 0.0691,0 0.125,-0.056 0.125,-0.125 V 1.994208 c 0,-0.069035 -0.0559,-0.125 -0.125,-0.125 H 82.49952 c -0.06903,0 -0.125,0.055965 -0.125,0.125 V 138.5 c 0,0.069 0.05597,0.125 0.125,0.125 h 13.00047 v -0.25 H 82.49952 l 0.125,0.125 V 1.994208 l -0.125,0.125 H 407.8954 l -0.125,-0.125 V 111.543 l 0.125,-0.125 H 389.895 Z M 94.49999,141.5 l 6.00001,-3 -6.00001,-3 z"
       style="fill:#3f98bd;fill-opacity:1;fill-rule:nonzero;stroke:none"
       id="path72" /><path
       d="m 180,295 h 51 v -50 h -51 z"
       style="fill:#99bde4;fill-opacity:1;fill-rule:nonzero;stroke:none"
       id="path74" /><g
       id="g76"
       transform="translate(196.6925,-58)"><text
         transform="matrix(1,0,0,-1,0,335)"
         style="font-variant:normal;font-weight:bold;font-size:9px;font-family:'Gill Sans MT';-inkscape-font-specification:GillSansMT-Bold;writing-mode:lr-tb;fill:#ffffff;fill-opacity:1;fill-rule:nonzero;stroke:none"
         id="text80"><tspan
           x="0 7.0001998 12.0024"
           y="0"
           sodipodi:role="line"
           id="tspan78">Cov</tspan></text></g><g
       id="g82"
       transform="translate(192.6925,-68)"><text
         transform="matrix(1,0,0,-1,0,335)"
         style="font-variant:normal;font-weight:bold;font-size:9px;font-family:'Gill Sans MT';-inkscape-font-specification:GillSansMT-Bold;writing-mode:lr-tb;fill:#ffffff;fill-opacity:1;fill-rule:nonzero;stroke:none"
         id="text86"><tspan
           x="0 8.0001001 13.0032 16.998301"
           y="0"
           sodipodi:role="line"
           id="tspan84">Norm</tspan></text></g><g
       id="g88"
       transform="translate(195.6925,-79)"><text
         transform="matrix(1,0,0,-1,0,335)"
         style="font-variant:normal;font-weight:bold;font-size:9px;font-family:'Gill Sans MT';-inkscape-font-specification:GillSansMT-Bold;writing-mode:lr-tb;fill:#ffffff;fill-opacity:1;fill-rule:nonzero;stroke:none"
         id="text92"><tspan
           x="0 5.0004001 10.0008"
           y="0"
           sodipodi:role="line"
           id="tspan90">Sum</tspan></text></g><path
       d="m 274,309 h 50 v -51 h -50 z"
       style="fill:#90298d;fill-opacity:1;fill-rule:nonzero;stroke:none"
       id="path94" /><g
       id="g96"
       transform="translate(289.8499,-44)"><text
         transform="matrix(1,0,0,-1,0,335)"
         style="font-variant:normal;font-weight:bold;font-size:9px;font-family:'Gill Sans MT';-inkscape-font-specification:GillSansMT-Bold;writing-mode:lr-tb;fill:#ffffff;fill-opacity:1;fill-rule:nonzero;stroke:none"
         id="text100"><tspan
           x="0 7.0001998 12.0024"
           y="0"
           sodipodi:role="line"
           id="tspan98">Cov</tspan></text></g><g
       id="g102"
       transform="translate(285.8499,-54)"><text
         transform="matrix(1,0,0,-1,0,335)"
         style="font-variant:normal;font-weight:bold;font-size:9px;font-family:'Gill Sans MT';-inkscape-font-specification:GillSansMT-Bold;writing-mode:lr-tb;fill:#ffffff;fill-opacity:1;fill-rule:nonzero;stroke:none"
         id="text106"><tspan
           x="0 8.0001001 13.0032 16.998301"
           y="0"
           sodipodi:role="line"
           id="tspan104">Norm</tspan></text></g><g
       id="g108"
       transform="translate(288.8499,-65)"><text
         transform="matrix(1,0,0,-1,0,335)"
         style="font-variant:normal;font-weight:bold;font-size:9px;font-family:'Gill Sans MT';-inkscape-font-specification:GillSansMT-Bold;writing-mode:lr-tb;fill:#ffffff;fill-opacity:1;fill-rule:nonzero;stroke:none"
         id="text112"><tspan
           x="0 5.0004001 10.0008"
           y="0"
           sodipodi:role="line"
           id="tspan110">Sum</tspan></text></g><path
       d="m 199.7348,210.7257 v 16.683 c 0,0.0691 -0.056,0.125 -0.125,0.125 H 162.5 l 0.125,-0.125 V 269.5 l -0.125,-0.125 h 13 v 0.25 h -13 c -0.0691,0 -0.125,-0.056 -0.125,-0.125 v -42.0913 c 0,-0.069 0.0559,-0.125 0.125,-0.125 h 37.1098 l -0.125,0.125 v -16.683 z M 174.5,266.5 l 6,3 -6,3 z"
       style="fill:#3f98bd;fill-opacity:1;fill-rule:nonzero;stroke:none"
       id="path114" /><path
       d="m 231.2811,269.375 h 17.9999 l -0.125,0.125 v -42.0913 l 0.125,0.125 H 200.5 c -0.069,0 -0.125,-0.0559 -0.125,-0.125 v -11.683 h 0.25 v 11.683 l -0.125,-0.125 h 48.781 c 0.069,0 0.125,0.056 0.125,0.125 V 269.5 c 0,0.069 -0.056,0.125 -0.125,0.125 H 231.2811 Z M 197.5,216.7257 l 3,-6 3,6 z"
       style="fill:#3f98bd;fill-opacity:1;fill-rule:nonzero;stroke:none"
       id="path116" /><path
       d="m 370.8334,211.005 v 23.5435 c 0,0.069 -0.0559,0.125 -0.125,0.125 h -114.208 l 0.125,-0.125 V 283.5 l -0.125,-0.125 H 269.5 v 0.25 h -12.9996 c -0.0691,0 -0.125,-0.056 -0.125,-0.125 v -48.9515 c 0,-0.0691 0.0559,-0.125 0.125,-0.125 h 114.208 l -0.125,0.125 V 211.005 Z M 268.5,280.5 l 6,3 -6,3 z"
       style="fill:#3f98bd;fill-opacity:1;fill-rule:nonzero;stroke:none"
       id="path118" /><path
       d="m 324.5,283.625 h 45.8176 c 0.069,0 0.125,-0.056 0.125,-0.125 v -67.4951 h -0.25 V 283.5 l 0.125,-0.125 H 324.5 Z m 48.8176,-66.62 -3,-6 -3,6 z"
       style="fill:#3f98bd;fill-opacity:1;fill-rule:nonzero;stroke:none"
       id="path120" /><path
       d="m 269,211 h 50 V 13 h -50 z"
       style="fill:#90298d;fill-opacity:1;fill-rule:nonzero;stroke:none"
       id="path122" /><g
       id="g124"
       transform="translate(287.326,-216)"><text
         transform="matrix(1,0,0,-1,0,335)"
         style="font-variant:normal;font-weight:bold;font-size:9px;font-family:'Gill Sans MT';-inkscape-font-specification:GillSansMT-Bold;writing-mode:lr-tb;fill:#ffffff;fill-opacity:1;fill-rule:nonzero;stroke:none"
         id="text128"><tspan
           x="0 8.0001001"
           y="0"
           sodipodi:role="line"
           id="tspan126">Mu</tspan></text></g><g
       id="g130"
       transform="translate(276.326,-226)"><text
         transform="matrix(1,0,0,-1,0,335)"
         style="font-variant:normal;font-weight:bold;font-size:9px;font-family:'Gill Sans MT';-inkscape-font-specification:GillSansMT-Bold;writing-mode:lr-tb;fill:#ffffff;fill-opacity:1;fill-rule:nonzero;stroke:none"
         id="text134"><tspan
           x="0 6.0002999 11.0016 19.998899 25.0002 30.001499 35.0028"
           y="0"
           sodipodi:role="line"
           id="tspan132">Lambda </tspan></text></g><g
       id="g136"
       transform="translate(290.326,-237)"><text
         transform="matrix(1,0,0,-1,0,335)"
         style="font-variant:normal;font-weight:bold;font-size:9px;font-family:'Gill Sans MT';-inkscape-font-specification:GillSansMT-Bold;writing-mode:lr-tb;fill:#ffffff;fill-opacity:1;fill-rule:nonzero;stroke:none"
         id="text140"><tspan
           x="0"
           y="0"
           id="tspan138">V</tspan></text></g><path
       d="m 100,210 h 52 V 68 h -52 z"
       style="fill:#99bde4;fill-opacity:1;fill-rule:nonzero;stroke:none"
       id="path142" /><g
       id="g144"
       transform="translate(119.2224,-189)"><text
         transform="matrix(1,0,0,-1,0,335)"
         style="font-variant:normal;font-weight:bold;font-size:9px;font-family:'Gill Sans MT';-inkscape-font-specification:GillSansMT-Bold;writing-mode:lr-tb;fill:#ffffff;fill-opacity:1;fill-rule:nonzero;stroke:none"
         id="text148"><tspan
           x="0 8.0001001"
           y="0"
           sodipodi:role="line"
           id="tspan146">Mu</tspan></text></g><g
       id="g150"
       transform="translate(108.2224,-199)"><text
         transform="matrix(1,0,0,-1,0,335)"
         style="font-variant:normal;font-weight:bold;font-size:9px;font-family:'Gill Sans MT';-inkscape-font-specification:GillSansMT-Bold;writing-mode:lr-tb;fill:#ffffff;fill-opacity:1;fill-rule:nonzero;stroke:none"
         id="text154"><tspan
           x="0 6.0002999 11.0016 19.998899 25.0002 30.001499 35.0028"
           y="0"
           sodipodi:role="line"
           id="tspan152">Lambda </tspan></text></g><g
       id="g156"
       transform="translate(122.2224,-210)"><text
         transform="matrix(1,0,0,-1,0,335)"
         style="font-variant:normal;font-weight:bold;font-size:9px;font-family:'Gill Sans MT';-inkscape-font-specification:GillSansMT-Bold;writing-mode:lr-tb;fill:#ffffff;fill-opacity:1;fill-rule:nonzero;stroke:none"
         id="text160"><tspan
           x="0"
           y="0"
           id="tspan158">U</tspan></text></g><path
       d="m 214.5,138.3747 45.7806,3e-4 v 0.25 l -45.7806,-3e-4 z m 44.7807,-2.8747 5.9999,3 -6,3 z"
       style="fill:#3f98bd;fill-opacity:1;fill-rule:nonzero;stroke:none"
       id="path162" /><g
       id="g164"
       transform="translate(23.53866,-142)"><text
         transform="matrix(1,0,0,-1,0,335)"
         style="font-variant:normal;font-weight:bold;font-size:11px;font-family:Arial;-inkscape-font-specification:Arial-BoldMT;writing-mode:lr-tb;fill:#464749;fill-opacity:1;fill-rule:nonzero;stroke:none"
         id="text168"><tspan
           x="0 10.0001 16.9972 21.0023 26.9984 32.994499 36.999599 39.002701"
           y="0"
           sodipodi:role="line"
           id="tspan166">Worker 1</tspan></text></g><g
       id="g170"
       transform="translate(21.57524,-192)"><text
         transform="matrix(1,0,0,-1,0,335)"
         style="font-variant:normal;font-weight:bold;font-size:11px;font-family:Arial;-inkscape-font-specification:Arial-BoldMT;writing-mode:lr-tb;fill:#464749;fill-opacity:1;fill-rule:nonzero;stroke:none"
         id="text174"><tspan
           x="0 10.0001 16.9972 21.0023 26.9984 32.994499 36.999599 39.002701"
           y="0"
           sodipodi:role="line"
           id="tspan172">Worker 2</tspan></text></g><g
       id="g176"
       transform="translate(22.54685,-242)"><text
         transform="matrix(1,0,0,-1,0,335)"
         style="font-variant:normal;font-weight:bold;font-size:11px;font-family:Arial;-inkscape-font-specification:Arial-BoldMT;writing-mode:lr-tb;fill:#464749;fill-opacity:1;fill-rule:nonzero;stroke:none"
         id="text180"><tspan
           x="0 10.0001 16.9972 21.0023 26.9984 32.994499 36.999599 39.002701"
           y="0"
           sodipodi:role="line"
           id="tspan178">Worker 3</tspan></text></g><path
       d="m 220.5882,195.5886 41.6757,-41.4789 -0.1764,-0.1772 -41.6757,41.4789 z m 42.995,-38.7357 2.1364,-6.359 -6.369,2.1063 z"
       style="fill:#3c3c3b;fill-opacity:1;fill-rule:nonzero;stroke:none"
       id="path182" /><path
       d="m 218.5182,193.6237 43.2864,-6.3822 -0.0364,-0.2473 -43.2864,6.3821 z m 42.7165,-3.3921 5.4982,-3.8431 -6.3734,-2.0927 z"
       style="fill:#3c3c3b;fill-opacity:1;fill-rule:nonzero;stroke:none"
       id="path184" /><path
       d="m 220.6139,193.5514 41.9301,-92.8582 -0.2279,-0.1029 -41.93,92.8583 z m 44.1388,-90.7637 -0.2649,-6.70298 -5.2034,4.23378 z"
       style="fill:#3c3c3b;fill-opacity:1;fill-rule:nonzero;stroke:none"
       id="path186" /><path
       d="m 223.5882,155.5886 41.6757,-41.4789 -0.1764,-0.1772 -41.6757,41.4789 z m 42.995,-38.7357 2.1364,-6.359 -6.369,2.1063 z"
       style="fill:#3c3c3b;fill-opacity:1;fill-rule:nonzero;stroke:none"
       id="path188" /><path
       d="m 222.5182,153.6237 43.2864,-6.3822 -0.0364,-0.2473 -43.2864,6.3821 z m 42.7165,-3.3921 5.4982,-3.8431 -6.3734,-2.0927 z"
       style="fill:#3c3c3b;fill-opacity:1;fill-rule:nonzero;stroke:none"
       id="path190" /><path
       d="m 224.5706,153.7971 34.7496,23.7763 -0.1412,0.2063 -34.7496,-23.7763 z m 35.5478,20.8389 3.2577,5.864 -6.6458,-0.9122 z"
       style="fill:#3c3c3b;fill-opacity:1;fill-rule:nonzero;stroke:none"
       id="path192" /><path
       d="m 221.6041,116.5253 43.0101,64.7408 -0.2082,0.1383 -43.0101,-64.7407 z m 44.8515,62.317 0.8213,6.6577 -5.819,-3.3376 z"
       style="fill:#3c3c3b;fill-opacity:1;fill-rule:nonzero;stroke:none"
       id="path194" /><path
       d="m 219.5182,114.6237 43.2864,-6.3822 -0.0364,-0.2473 -43.2864,6.3821 z m 42.7165,-3.3921 5.4982,-3.8431 -6.3734,-2.0927 z"
       style="fill:#3c3c3b;fill-opacity:1;fill-rule:nonzero;stroke:none"
       id="path196" /><path
       d="m 221.5706,114.797 34.7496,23.7764 -0.1412,0.2063 -34.7496,-23.7764 z m 35.5478,20.839 3.2577,5.864 -6.6458,-0.9122 z"
       style="fill:#3c3c3b;fill-opacity:1;fill-rule:nonzero;stroke:none"
       id="path198" /><g
       id="g200"
       transform="matrix(7.874016e-5,0,0,7.874016e-5,64,172.8077)"><path
         d="M 0,0 2121173,27842"
         style="fill:none;stroke:#52bdc2;stroke-width:44450;stroke-linecap:butt;stroke-linejoin:round;stroke-miterlimit:10;stroke-dasharray:none;stroke-opacity:1"
         id="path202" /></g><g
       id="g204"
       transform="matrix(7.874016e-5,0,0,-7.874016e-5,64,110)"><path
         d="M 0,0 2036558,1"
         style="fill:none;stroke:#52bdc2;stroke-width:44450;stroke-linecap:butt;stroke-linejoin:round;stroke-miterlimit:10;stroke-dasharray:none;stroke-opacity:1"
         id="path206" /></g><path
       d="m 319.5,88.37492 26.2811,7e-5 v 0.25 l -26.2811,-7e-5 z m 25.2811,-2.87493 6,3.00001 -6,2.99999 z"
       style="fill:#3f98bd;fill-opacity:1;fill-rule:nonzero;stroke:none"
       id="path208" /><path
       d="m 318.5,204.3749 26.2811,1e-4 v 0.25 l -26.2811,-1e-4 z m 25.2811,-2.8749 6,3 -6,3 z"
       style="fill:#3f98bd;fill-opacity:1;fill-rule:nonzero;stroke:none"
       id="path210" /><path
       d="m 318.5,191.3749 26.2811,1e-4 v 0.25 l -26.2811,-1e-4 z m 25.2811,-2.8749 6,3 -6,3 z"
       style="fill:#3f98bd;fill-opacity:1;fill-rule:nonzero;stroke:none"
       id="path212" /><path
       d="m 318.5,195.3749 26.2811,1e-4 v 0.25 l -26.2811,-1e-4 z m 25.2811,-2.8749 6,3 -6,3 z"
       style="fill:#3f98bd;fill-opacity:1;fill-rule:nonzero;stroke:none"
       id="path214" /><path
       d="m 319.5,181.3749 26.2811,1e-4 v 0.25 l -26.2811,-1e-4 z m 25.2811,-2.8749 6,3 -6,3 z"
       style="fill:#3f98bd;fill-opacity:1;fill-rule:nonzero;stroke:none"
       id="path216" /><path
       d="m 319.5,170.3749 26.2811,1e-4 v 0.25 l -26.2811,-1e-4 z m 25.2811,-2.8749 6,3 -6,3 z"
       style="fill:#3f98bd;fill-opacity:1;fill-rule:nonzero;stroke:none"
       id="path218" /><path
       d="m 320.5,157.3749 26.2811,1e-4 v 0.25 l -26.2811,-1e-4 z m 25.2811,-2.8749 6,3 -6,3 z"
       style="fill:#3f98bd;fill-opacity:1;fill-rule:nonzero;stroke:none"
       id="path220" /><path
       d="m 320.5,161.3749 26.2811,1e-4 v 0.25 l -26.2811,-1e-4 z m 25.2811,-2.8749 6,3 -6,3 z"
       style="fill:#3f98bd;fill-opacity:1;fill-rule:nonzero;stroke:none"
       id="path222" /><path
       d="m 320.5,148.3749 26.2811,1e-4 v 0.25 l -26.2811,-1e-4 z m 25.2811,-2.8749 6,3 -6,3 z"
       style="fill:#3f98bd;fill-opacity:1;fill-rule:nonzero;stroke:none"
       id="path224" /><path
       d="m 319.5,139.3749 26.2811,1e-4 v 0.25 l -26.2811,-1e-4 z m 25.2811,-2.8749 6,3 -6,3 z"
       style="fill:#3f98bd;fill-opacity:1;fill-rule:nonzero;stroke:none"
       id="path226" /><g
       id="g228"
       transform="matrix(7.874016e-5,0,0,7.874016e-5,252,152.8077)"><path
         d="M 0,0 2121173,27842"
         style="fill:none;stroke:#52bdc2;stroke-width:44450;stroke-linecap:butt;stroke-linejoin:round;stroke-miterlimit:10;stroke-dasharray:none;stroke-opacity:1"
         id="path230" /></g><g
       id="g232"
       transform="matrix(7.874016e-5,0,0,-7.874016e-5,252,73)"><path
         d="M 0,0 2036558,1"
         style="fill:none;stroke:#52bdc2;stroke-width:44450;stroke-linecap:butt;stroke-linejoin:round;stroke-miterlimit:10;stroke-dasharray:none;stroke-opacity:1"
         id="path234" /></g><path
       d="M 511,319.9997 C 511,328.2842 517.7159,335 526.0003,335 h 59.9994 C 594.2841,335 601,328.2842 601,319.9997 V 15.00027 C 601,6.715848 594.2841,2.686255e-6 585.9997,2.686255e-6 H 526.0003 C 517.7159,2.686255e-6 511,6.715848 511,15.00027 Z"
       style="fill:#3c3c3b;fill-opacity:1;fill-rule:nonzero;stroke:none"
       id="path236" /><path
       d="m 531,281 h 49 v -79 h -49 z"
       style="fill:#99bde4;fill-opacity:1;fill-rule:nonzero;stroke:none"
       id="path238" /><g
       id="g240"
       transform="matrix(7.874016e-5,0,0,-7.874016e-5,531,281)"><path
         d="M 0,0 H 622300 V 1003300 H 0 Z"
         style="fill:none;stroke:#f2f2f2;stroke-width:28575;stroke-linecap:butt;stroke-linejoin:round;stroke-miterlimit:10;stroke-dasharray:none;stroke-opacity:1"
         id="path242" /></g><g
       id="g244"
       transform="translate(549.14,-86)"><text
         transform="matrix(1,0,0,-1,0,335)"
         style="font-variant:normal;font-weight:bold;font-size:9px;font-family:'Gill Sans MT';-inkscape-font-specification:GillSansMT-Bold;writing-mode:lr-tb;fill:#ffffff;fill-opacity:1;fill-rule:nonzero;stroke:none"
         id="text248"><tspan
           x="0 8.0001001"
           y="0"
           sodipodi:role="line"
           id="tspan246">Mu</tspan></text></g><g
       id="g250"
       transform="translate(538.14,-96)"><text
         transform="matrix(1,0,0,-1,0,335)"
         style="font-variant:normal;font-weight:bold;font-size:9px;font-family:'Gill Sans MT';-inkscape-font-specification:GillSansMT-Bold;writing-mode:lr-tb;fill:#ffffff;fill-opacity:1;fill-rule:nonzero;stroke:none"
         id="text254"><tspan
           x="0 6.0002999 11.0016 19.998899 25.0002 30.001499"
           y="0"
           sodipodi:role="line"
           id="tspan252">Lambda</tspan></text></g><g
       id="g256"
       transform="translate(552.14,-107)"><text
         transform="matrix(1,0,0,-1,0,335)"
         style="font-variant:normal;font-weight:bold;font-size:9px;font-family:'Gill Sans MT';-inkscape-font-specification:GillSansMT-Bold;writing-mode:lr-tb;fill:#ffffff;fill-opacity:1;fill-rule:nonzero;stroke:none"
         id="text260"><tspan
           x="0"
           y="0"
           id="tspan258">U</tspan></text></g><path
       d="m 530,310 h 51 v -29 h -51 z"
       style="fill:#99bde4;fill-opacity:1;fill-rule:nonzero;stroke:none"
       id="path262" /><g
       id="g264"
       transform="matrix(7.874016e-5,0,0,-7.874016e-5,530,310)"><path
         d="M 0,0 H 647700 V 368300 H 0 Z"
         style="fill:none;stroke:#f2f2f2;stroke-width:28575;stroke-linecap:butt;stroke-linejoin:round;stroke-miterlimit:10;stroke-dasharray:none;stroke-opacity:1"
         id="path266" /></g><g
       id="g268"
       transform="translate(546.7,-33)"><text
         transform="matrix(1,0,0,-1,0,335)"
         style="font-variant:normal;font-weight:bold;font-size:9px;font-family:'Gill Sans MT';-inkscape-font-specification:GillSansMT-Bold;writing-mode:lr-tb;fill:#ffffff;fill-opacity:1;fill-rule:nonzero;stroke:none"
         id="text272"><tspan
           x="0 7.0001998 12.0024"
           y="0"
           sodipodi:role="line"
           id="tspan270">Cov</tspan></text></g><g
       id="g274"
       transform="translate(542.7,-43)"><text
         transform="matrix(1,0,0,-1,0,335)"
         style="font-variant:normal;font-weight:bold;font-size:9px;font-family:'Gill Sans MT';-inkscape-font-specification:GillSansMT-Bold;writing-mode:lr-tb;fill:#ffffff;fill-opacity:1;fill-rule:nonzero;stroke:none"
         id="text278"><tspan
           x="0 8.0001001 13.0032 16.998301"
           y="0"
           sodipodi:role="line"
           id="tspan276">Norm</tspan></text></g><g
       id="g280"
       transform="translate(545.7,-54)"><text
         transform="matrix(1,0,0,-1,0,335)"
         style="font-variant:normal;font-weight:bold;font-size:9px;font-family:'Gill Sans MT';-inkscape-font-specification:GillSansMT-Bold;writing-mode:lr-tb;fill:#ffffff;fill-opacity:1;fill-rule:nonzero;stroke:none"
         id="text284"><tspan
           x="0 5.0004001 10.0008"
           y="0"
           sodipodi:role="line"
           id="tspan282">Sum</tspan></text></g><path
       d="m 530,202 h 51 v -51 h -51 z"
       style="fill:#90298d;fill-opacity:1;fill-rule:nonzero;stroke:none"
       id="path286" /><g
       id="g288"
       transform="matrix(7.874016e-5,0,0,-7.874016e-5,530,202)"><path
         d="M 0,0 H 647700 V 647700 H 0 Z"
         style="fill:none;stroke:#f2f2f2;stroke-width:28575;stroke-linecap:butt;stroke-linejoin:round;stroke-miterlimit:10;stroke-dasharray:none;stroke-opacity:1"
         id="path290" /></g><g
       id="g292"
       transform="translate(546.7,-151)"><text
         transform="matrix(1,0,0,-1,0,335)"
         style="font-variant:normal;font-weight:bold;font-size:9px;font-family:'Gill Sans MT';-inkscape-font-specification:GillSansMT-Bold;writing-mode:lr-tb;fill:#ffffff;fill-opacity:1;fill-rule:nonzero;stroke:none"
         id="text296"><tspan
           x="0 7.0001998 12.0024"
           y="0"
           sodipodi:role="line"
           id="tspan294">Cov</tspan></text></g><g
       id="g298"
       transform="translate(542.7,-161)"><text
         transform="matrix(1,0,0,-1,0,335)"
         style="font-variant:normal;font-weight:bold;font-size:9px;font-family:'Gill Sans MT';-inkscape-font-specification:GillSansMT-Bold;writing-mode:lr-tb;fill:#ffffff;fill-opacity:1;fill-rule:nonzero;stroke:none"
         id="text302"><tspan
           x="0 8.0001001 13.0032 16.998301"
           y="0"
           sodipodi:role="line"
           id="tspan300">Norm</tspan></text></g><g
       id="g304"
       transform="translate(545.7,-172)"><text
         transform="matrix(1,0,0,-1,0,335)"
         style="font-variant:normal;font-weight:bold;font-size:9px;font-family:'Gill Sans MT';-inkscape-font-specification:GillSansMT-Bold;writing-mode:lr-tb;fill:#ffffff;fill-opacity:1;fill-rule:nonzero;stroke:none"
         id="text308"><tspan
           x="0 5.0004001 10.0008"
           y="0"
           sodipodi:role="line"
           id="tspan306">Sum</tspan></text></g><path
       d="m 531,152 h 50 V 44 h -50 z"
       style="fill:#90298d;fill-opacity:1;fill-rule:nonzero;stroke:none"
       id="path310" /><g
       id="g312"
       transform="matrix(7.874016e-5,0,0,-7.874016e-5,531,152)"><path
         d="M 0,0 H 635000 V 1371600 H 0 Z"
         style="fill:none;stroke:#f2f2f2;stroke-width:28575;stroke-linecap:butt;stroke-linejoin:round;stroke-miterlimit:10;stroke-dasharray:none;stroke-opacity:1"
         id="path314" /></g><g
       id="g316"
       transform="translate(549.0159,-230)"><text
         transform="matrix(1,0,0,-1,0,335)"
         style="font-variant:normal;font-weight:bold;font-size:9px;font-family:'Gill Sans MT';-inkscape-font-specification:GillSansMT-Bold;writing-mode:lr-tb;fill:#ffffff;fill-opacity:1;fill-rule:nonzero;stroke:none"
         id="text320"><tspan
           x="0 8.0001001"
           y="0"
           sodipodi:role="line"
           id="tspan318">Mu</tspan></text></g><g
       id="g322"
       transform="translate(538.0159,-240)"><text
         transform="matrix(1,0,0,-1,0,335)"
         style="font-variant:normal;font-weight:bold;font-size:9px;font-family:'Gill Sans MT';-inkscape-font-specification:GillSansMT-Bold;writing-mode:lr-tb;fill:#ffffff;fill-opacity:1;fill-rule:nonzero;stroke:none"
         id="text326"><tspan
           x="0 6.0002999 11.0016 19.998899 25.0002 30.001499"
           y="0"
           sodipodi:role="line"
           id="tspan324">Lambda</tspan></text></g><g
       id="g328"
       transform="translate(553.0159,-251)"><text
         transform="matrix(1,0,0,-1,0,335)"
         style="font-variant:normal;font-weight:bold;font-size:9px;font-family:'Gill Sans MT';-inkscape-font-specification:GillSansMT-Bold;writing-mode:lr-tb;fill:#ffffff;fill-opacity:1;fill-rule:nonzero;stroke:none"
         id="text332"><tspan
           x="0"
           y="0"
           id="tspan330">V</tspan></text></g></g></svg>
